<svg xmlns="http://www.w3.org/2000/svg" xmlns:xlink="http://www.w3.org/1999/xlink" width="24" height="24" viewBox="0 0 24 24"><defs><clipPath id="a"><rect width="24" height="24" transform="translate(-6473 -15009)" fill="#fff" stroke="#707070" stroke-width="1"/></clipPath><clipPath id="b"><rect width="23.984" height="24"/></clipPath></defs><g transform="translate(6473 15009)" clip-path="url(#a)"><g transform="translate(-6472.5 -15009)"><g transform="translate(-0.5)" clip-path="url(#b)"><path d="M9.61,4.839A4.735,4.735,0,1,1,4.843,9.561,4.71,4.71,0,0,1,9.61,4.839" transform="translate(2.421 2.419)"/><path d="M18.177,22.1c-4.127,3.324-11.5,2.135-15.321-2.338A11.99,11.99,0,0,1,20.578,3.625c4.359,4.48,4.551,11.916.473,16.111l-2.9-3.042a7.788,7.788,0,1,0-3.993,2.658,1.435,1.435,0,0,1,1.775.5c.69.8,1.488,1.5,2.248,2.247" transform="translate(0 0)"/></g></g></g></svg>